<?xml version="1.0" encoding="UTF-8"?>
<svg xmlns="http://www.w3.org/2000/svg" xmlns:xlink="http://www.w3.org/1999/xlink" width="198pt" height="92pt" viewBox="0 0 198 92" version="1.1">
<g id="surface1">
<path style=" stroke:none;fill-rule:nonzero;fill:rgb(13.729858%,12.159729%,12.548828%);fill-opacity:1;" d="M 123.539062 70.925781 L 102.164062 70.925781 L 76.761719 43.601562 L 76.761719 27.996094 L 101.390625 0.753906 L 123.386719 0.753906 L 95.039062 36.070312 L 123.539062 70.925781 "/>
<path style=" stroke:none;fill-rule:nonzero;fill:rgb(13.729858%,12.159729%,12.548828%);fill-opacity:1;" d="M 126.785156 70.917969 L 145.992188 70.917969 L 145.992188 0.808594 L 126.785156 0.808594 Z M 126.785156 70.917969 "/>
<path style=" stroke:none;fill-rule:nonzero;fill:rgb(13.729858%,12.159729%,12.548828%);fill-opacity:1;" d="M 196.949219 0.804688 L 150.636719 0.804688 L 150.636719 16.628906 L 164.1875 16.628906 L 164.1875 70.980469 L 183.394531 70.980469 L 183.394531 16.628906 L 196.949219 16.628906 L 196.949219 0.804688 "/>
<path style=" stroke:none;fill-rule:nonzero;fill:rgb(4.508972%,55.683899%,84.609985%);fill-opacity:1;" d="M 72.171875 70.921875 L 72.160156 70.898438 L 72.160156 70.90625 L 72.171875 70.921875 "/>
<path style=" stroke:none;fill-rule:nonzero;fill:rgb(4.508972%,55.683899%,84.609985%);fill-opacity:1;" d="M 72.160156 70.914062 L 72.160156 70.90625 L 72.15625 70.90625 L 72.160156 70.914062 "/>
<path style=" stroke:none;fill-rule:nonzero;fill:rgb(0%,66.195679%,56.338501%);fill-opacity:1;" d="M 17.339844 26.460938 C 13.664062 30.910156 10.53125 35.820312 8.027344 41.089844 L 72.160156 70.925781 L 17.339844 26.460938 "/>
<path style=" stroke:none;fill-rule:nonzero;fill:rgb(0%,66.195679%,56.338501%);fill-opacity:1;" d="M 72.152344 70.898438 L 42.226562 7.304688 C 36.949219 9.738281 32.019531 12.800781 27.542969 16.40625 L 72.160156 70.921875 L 72.152344 70.898438 "/>
<path style=" stroke:none;fill-rule:nonzero;fill:rgb(4.508972%,55.683899%,84.609985%);fill-opacity:1;" d="M 72.15625 70.90625 L 72.160156 70.90625 L 72.160156 70.898438 L 72.152344 70.878906 L 72.15625 70.90625 "/>
<path style=" stroke:none;fill-rule:nonzero;fill:rgb(4.508972%,55.683899%,84.609985%);fill-opacity:1;" d="M 72.15625 70.90625 L 72.160156 70.90625 L 72.160156 70.898438 L 72.152344 70.878906 L 72.15625 70.90625 "/>
<path style=" stroke:none;fill-rule:nonzero;fill:rgb(0%,66.195679%,56.338501%);fill-opacity:1;" d="M 3.4375 53.75 C 2.027344 59.246094 1.269531 65 1.242188 70.929688 L 72.136719 70.929688 L 3.4375 53.75 "/>
<path style=" stroke:none;fill-rule:nonzero;fill:rgb(13.729858%,12.159729%,12.548828%);fill-opacity:1;" d="M 72.160156 70.914062 L 72.195312 0.871094 C 72.015625 0.871094 71.84375 0.859375 71.664062 0.859375 C 65.953125 0.859375 60.410156 1.554688 55.09375 2.835938 L 72.152344 70.898438 L 72.160156 70.914062 "/>
<path style=" stroke:none;fill-rule:nonzero;fill:rgb(13.729858%,12.159729%,12.548828%);fill-opacity:1;" d="M 1.21875 79.410156 L 2.5 79.410156 L 2.5 83.339844 L 6.316406 79.410156 L 8.019531 79.410156 L 3.820312 83.636719 L 8.351562 88.347656 L 6.480469 88.347656 L 2.5 83.96875 L 2.5 88.347656 L 1.21875 88.347656 L 1.21875 79.410156 "/>
<path style=" stroke:none;fill-rule:nonzero;fill:rgb(13.729858%,12.159729%,12.548828%);fill-opacity:1;" d="M 13.347656 85.238281 C 13.089844 85.238281 12.835938 85.210938 12.578125 85.210938 C 11.925781 85.210938 10.3125 85.3125 10.3125 86.46875 C 10.3125 87.15625 10.976562 87.527344 11.527344 87.527344 C 12.71875 87.527344 13.347656 86.785156 13.347656 85.8125 Z M 9.773438 82.277344 C 10.375 81.917969 11.09375 81.664062 11.925781 81.664062 C 13.792969 81.664062 14.550781 82.585938 14.550781 84.367188 L 14.550781 87.066406 C 14.550781 87.8125 14.578125 88.15625 14.601562 88.347656 L 13.472656 88.347656 L 13.472656 87.503906 L 13.449219 87.503906 C 13.167969 87.898438 12.527344 88.5 11.425781 88.5 C 10.015625 88.5 9.03125 87.886719 9.03125 86.46875 C 9.03125 84.828125 10.824219 84.316406 12.066406 84.316406 C 12.539062 84.316406 12.871094 84.316406 13.347656 84.339844 C 13.347656 83.210938 12.9375 82.636719 11.734375 82.636719 C 11.054688 82.636719 10.324219 82.894531 9.835938 83.300781 L 9.773438 82.277344 "/>
<path style=" stroke:none;fill-rule:nonzero;fill:rgb(13.729858%,12.159729%,12.548828%);fill-opacity:1;" d="M 16.5 81.816406 L 17.628906 81.816406 L 17.628906 82.828125 L 17.652344 82.828125 C 17.972656 82.152344 18.664062 81.664062 19.355469 81.664062 C 19.714844 81.664062 19.894531 81.703125 20.148438 81.753906 L 20.148438 82.828125 C 19.933594 82.738281 19.691406 82.714844 19.484375 82.714844 C 18.410156 82.714844 17.703125 83.738281 17.703125 85.375 L 17.703125 88.347656 L 16.5 88.347656 L 16.5 81.816406 "/>
<path style=" stroke:none;fill-rule:nonzero;fill:rgb(13.729858%,12.159729%,12.548828%);fill-opacity:1;" d="M 21.480469 88.347656 L 22.683594 88.347656 L 22.683594 78.742188 L 21.480469 78.742188 Z M 21.480469 88.347656 "/>
<path style=" stroke:none;fill-rule:nonzero;fill:rgb(13.729858%,12.159729%,12.548828%);fill-opacity:1;" d="M 24.421875 87.066406 C 24.894531 87.375 25.574219 87.527344 25.917969 87.527344 C 26.46875 87.527344 27.148438 87.296875 27.148438 86.59375 C 27.148438 85.402344 24.320312 85.503906 24.320312 83.675781 C 24.320312 82.316406 25.332031 81.664062 26.625 81.664062 C 27.1875 81.664062 27.648438 81.777344 28.121094 81.917969 L 28.019531 82.96875 C 27.75 82.804688 27.035156 82.636719 26.753906 82.636719 C 26.136719 82.636719 25.597656 82.894531 25.597656 83.429688 C 25.597656 84.761719 28.429688 84.378906 28.429688 86.46875 C 28.429688 87.863281 27.316406 88.5 26.152344 88.5 C 25.535156 88.5 24.90625 88.4375 24.355469 88.144531 L 24.421875 87.066406 "/>
<path style=" stroke:none;fill-rule:nonzero;fill:rgb(13.729858%,12.159729%,12.548828%);fill-opacity:1;" d="M 29.890625 81.816406 L 31.015625 81.816406 L 31.015625 82.828125 L 31.042969 82.828125 C 31.363281 82.152344 32.054688 81.664062 32.746094 81.664062 C 33.105469 81.664062 33.285156 81.703125 33.539062 81.753906 L 33.539062 82.828125 C 33.320312 82.738281 33.078125 82.714844 32.875 82.714844 C 31.796875 82.714844 31.09375 83.738281 31.09375 85.375 L 31.09375 88.347656 L 29.890625 88.347656 L 29.890625 81.816406 "/>
<path style=" stroke:none;fill-rule:nonzero;fill:rgb(13.729858%,12.159729%,12.548828%);fill-opacity:1;" d="M 40.570312 88.347656 L 39.40625 88.347656 L 39.40625 87.3125 L 39.378906 87.3125 C 39.019531 88.054688 38.148438 88.5 37.242188 88.5 C 35.550781 88.5 34.792969 87.453125 34.792969 85.699219 L 34.792969 81.816406 L 35.996094 81.816406 L 35.996094 85.199219 C 35.996094 86.722656 36.332031 87.464844 37.382812 87.527344 C 38.753906 87.527344 39.367188 86.429688 39.367188 84.839844 L 39.367188 81.816406 L 40.570312 81.816406 L 40.570312 88.347656 "/>
<path style=" stroke:none;fill-rule:nonzero;fill:rgb(13.729858%,12.159729%,12.548828%);fill-opacity:1;" d="M 42.550781 78.742188 L 43.757812 78.742188 L 43.757812 82.753906 L 43.78125 82.753906 C 44.21875 82.0625 44.972656 81.664062 45.882812 81.664062 C 47.574219 81.664062 48.328125 82.714844 48.328125 84.46875 L 48.328125 88.347656 L 47.125 88.347656 L 47.125 84.96875 C 47.125 83.445312 46.792969 82.703125 45.742188 82.636719 C 44.371094 82.636719 43.757812 83.738281 43.757812 85.328125 L 43.757812 88.347656 L 42.550781 88.347656 L 42.550781 78.742188 "/>
<path style=" stroke:none;fill-rule:nonzero;fill:rgb(13.729858%,12.159729%,12.548828%);fill-opacity:1;" d="M 54.570312 84.453125 C 54.570312 83.457031 53.980469 82.636719 52.945312 82.636719 C 51.765625 82.636719 51.277344 83.609375 51.191406 84.453125 Z M 55.351562 88.082031 C 54.890625 88.246094 54.363281 88.5 53.289062 88.5 C 50.972656 88.5 49.910156 87.09375 49.910156 84.96875 C 49.910156 83.035156 51.125 81.664062 52.96875 81.664062 C 55.148438 81.664062 55.851562 83.25 55.851562 85.351562 L 51.191406 85.351562 C 51.191406 86.644531 52.203125 87.527344 53.339844 87.527344 C 54.136719 87.527344 55.058594 87.117188 55.351562 86.875 L 55.351562 88.082031 "/>
<path style=" stroke:none;fill-rule:nonzero;fill:rgb(13.729858%,12.159729%,12.548828%);fill-opacity:1;" d="M 61.140625 88.347656 L 62.421875 88.347656 L 62.421875 79.410156 L 61.140625 79.410156 Z M 61.140625 88.347656 "/>
<path style=" stroke:none;fill-rule:nonzero;fill:rgb(13.729858%,12.159729%,12.548828%);fill-opacity:1;" d="M 64.53125 81.816406 L 65.699219 81.816406 L 65.699219 82.855469 L 65.726562 82.855469 C 66.082031 82.113281 66.953125 81.664062 67.863281 81.664062 C 69.554688 81.664062 70.308594 82.714844 70.308594 84.46875 L 70.308594 88.347656 L 69.105469 88.347656 L 69.105469 84.96875 C 69.105469 83.445312 68.773438 82.703125 67.722656 82.636719 C 66.351562 82.636719 65.738281 83.738281 65.738281 85.328125 L 65.738281 88.347656 L 64.53125 88.347656 L 64.53125 81.816406 "/>
<path style=" stroke:none;fill-rule:nonzero;fill:rgb(13.729858%,12.159729%,12.548828%);fill-opacity:1;" d="M 71.914062 87.066406 C 72.390625 87.375 73.066406 87.527344 73.414062 87.527344 C 73.964844 87.527344 74.644531 87.296875 74.644531 86.59375 C 74.644531 85.402344 71.8125 85.503906 71.8125 83.675781 C 71.8125 82.316406 72.824219 81.664062 74.117188 81.664062 C 74.679688 81.664062 75.140625 81.777344 75.617188 81.917969 L 75.515625 82.96875 C 75.246094 82.804688 74.527344 82.636719 74.246094 82.636719 C 73.632812 82.636719 73.09375 82.894531 73.09375 83.429688 C 73.09375 84.761719 75.921875 84.378906 75.921875 86.46875 C 75.921875 87.863281 74.808594 88.5 73.644531 88.5 C 73.027344 88.5 72.402344 88.4375 71.851562 88.144531 L 71.914062 87.066406 "/>
<path style=" stroke:none;fill-rule:nonzero;fill:rgb(13.729858%,12.159729%,12.548828%);fill-opacity:1;" d="M 81.027344 82.789062 L 79.296875 82.789062 L 79.296875 86.363281 C 79.296875 87.117188 79.757812 87.527344 80.308594 87.527344 C 80.679688 87.527344 80.949219 87.414062 81.128906 87.296875 L 81.128906 88.324219 C 80.859375 88.398438 80.488281 88.5 80.105469 88.5 C 78.863281 88.5 78.09375 87.914062 78.09375 86.605469 L 78.09375 82.789062 L 76.621094 82.789062 L 76.621094 81.816406 L 78.09375 81.816406 L 78.09375 80.304688 L 79.296875 79.921875 L 79.296875 81.816406 L 81.027344 81.816406 L 81.027344 82.789062 "/>
<path style=" stroke:none;fill-rule:nonzero;fill:rgb(13.729858%,12.159729%,12.548828%);fill-opacity:1;" d="M 82.5 81.816406 L 83.703125 81.816406 L 83.703125 88.347656 L 82.5 88.347656 Z M 83.78125 80.359375 L 82.421875 80.359375 L 82.421875 79 L 83.78125 79 L 83.78125 80.359375 "/>
<path style=" stroke:none;fill-rule:nonzero;fill:rgb(13.729858%,12.159729%,12.548828%);fill-opacity:1;" d="M 89.332031 82.789062 L 87.601562 82.789062 L 87.601562 86.363281 C 87.601562 87.117188 88.0625 87.527344 88.613281 87.527344 C 88.984375 87.527344 89.253906 87.414062 89.433594 87.296875 L 89.433594 88.324219 C 89.164062 88.398438 88.792969 88.5 88.410156 88.5 C 87.167969 88.5 86.398438 87.914062 86.398438 86.605469 L 86.398438 82.789062 L 84.925781 82.789062 L 84.925781 81.816406 L 86.398438 81.816406 L 86.398438 80.304688 L 87.601562 79.921875 L 87.601562 81.816406 L 89.332031 81.816406 L 89.332031 82.789062 "/>
<path style=" stroke:none;fill-rule:nonzero;fill:rgb(13.729858%,12.159729%,12.548828%);fill-opacity:1;" d="M 96.453125 88.347656 L 95.285156 88.347656 L 95.285156 87.3125 L 95.261719 87.3125 C 94.902344 88.054688 94.03125 88.5 93.121094 88.5 C 91.433594 88.5 90.675781 87.453125 90.675781 85.699219 L 90.675781 81.816406 L 91.878906 81.816406 L 91.878906 85.199219 C 91.878906 86.722656 92.214844 87.464844 93.261719 87.527344 C 94.632812 87.527344 95.25 86.429688 95.25 84.839844 L 95.25 81.816406 L 96.453125 81.816406 L 96.453125 88.347656 "/>
<path style=" stroke:none;fill-rule:nonzero;fill:rgb(13.729858%,12.159729%,12.548828%);fill-opacity:1;" d="M 102.003906 82.789062 L 100.273438 82.789062 L 100.273438 86.363281 C 100.273438 87.117188 100.734375 87.527344 101.285156 87.527344 C 101.65625 87.527344 101.925781 87.414062 102.105469 87.296875 L 102.105469 88.324219 C 101.835938 88.398438 101.464844 88.5 101.082031 88.5 C 99.839844 88.5 99.070312 87.914062 99.070312 86.605469 L 99.070312 82.789062 L 97.597656 82.789062 L 97.597656 81.816406 L 99.070312 81.816406 L 99.070312 80.304688 L 100.273438 79.921875 L 100.273438 81.816406 L 102.003906 81.816406 L 102.003906 82.789062 "/>
<path style=" stroke:none;fill-rule:nonzero;fill:rgb(13.729858%,12.159729%,12.548828%);fill-opacity:1;" d="M 107.597656 84.453125 C 107.597656 83.457031 107.011719 82.636719 105.972656 82.636719 C 104.796875 82.636719 104.308594 83.609375 104.21875 84.453125 Z M 108.382812 88.082031 C 107.917969 88.246094 107.394531 88.5 106.316406 88.5 C 104 88.5 102.9375 87.09375 102.9375 84.96875 C 102.9375 83.035156 104.152344 81.664062 105.996094 81.664062 C 108.175781 81.664062 108.878906 83.25 108.878906 85.351562 L 104.21875 85.351562 C 104.21875 86.644531 105.230469 87.527344 106.367188 87.527344 C 107.160156 87.527344 108.085938 87.117188 108.382812 86.875 L 108.382812 88.082031 "/>
<path style=" stroke:none;fill-rule:nonzero;fill:rgb(13.729858%,12.159729%,12.548828%);fill-opacity:1;" d="M 116.945312 87.527344 C 118.355469 87.527344 118.984375 86.25 118.984375 85.082031 C 118.984375 83.839844 118.226562 82.636719 116.945312 82.636719 C 115.65625 82.636719 114.898438 83.839844 114.898438 85.082031 C 114.898438 86.25 115.523438 87.527344 116.945312 87.527344 Z M 116.945312 81.664062 C 118.933594 81.664062 120.265625 83.097656 120.265625 85.082031 C 120.265625 86.953125 118.90625 88.5 116.945312 88.5 C 114.976562 88.5 113.617188 86.953125 113.617188 85.082031 C 113.617188 83.097656 114.949219 81.664062 116.945312 81.664062 "/>
<path style=" stroke:none;fill-rule:nonzero;fill:rgb(13.729858%,12.159729%,12.548828%);fill-opacity:1;" d="M 122.507812 82.789062 L 120.96875 82.789062 L 120.96875 81.816406 L 122.507812 81.816406 L 122.507812 81.214844 C 122.507812 79.628906 122.914062 78.589844 124.695312 78.589844 C 125.003906 78.589844 125.261719 78.628906 125.503906 78.667969 L 125.449219 79.640625 C 125.3125 79.589844 125.082031 79.5625 124.875 79.5625 C 123.839844 79.5625 123.710938 80.230469 123.710938 81.113281 L 123.710938 81.816406 L 125.4375 81.816406 L 125.4375 82.789062 L 123.710938 82.789062 L 123.710938 88.347656 L 122.507812 88.347656 L 122.507812 82.789062 "/>
<path style=" stroke:none;fill-rule:nonzero;fill:rgb(13.729858%,12.159729%,12.548828%);fill-opacity:1;" d="M 132.160156 80.535156 L 129.382812 80.535156 L 129.382812 79.410156 L 136.222656 79.410156 L 136.222656 80.535156 L 133.441406 80.535156 L 133.441406 88.347656 L 132.160156 88.347656 L 132.160156 80.535156 "/>
<path style=" stroke:none;fill-rule:nonzero;fill:rgb(13.729858%,12.159729%,12.548828%);fill-opacity:1;" d="M 140.679688 84.453125 C 140.679688 83.457031 140.09375 82.636719 139.054688 82.636719 C 137.875 82.636719 137.386719 83.609375 137.300781 84.453125 Z M 141.460938 88.082031 C 141 88.246094 140.476562 88.5 139.398438 88.5 C 137.082031 88.5 136.019531 87.09375 136.019531 84.96875 C 136.019531 83.035156 137.234375 81.664062 139.078125 81.664062 C 141.257812 81.664062 141.960938 83.25 141.960938 85.351562 L 137.300781 85.351562 C 137.300781 86.644531 138.3125 87.527344 139.449219 87.527344 C 140.246094 87.527344 141.167969 87.117188 141.460938 86.875 L 141.460938 88.082031 "/>
<path style=" stroke:none;fill-rule:nonzero;fill:rgb(13.729858%,12.159729%,12.548828%);fill-opacity:1;" d="M 147.777344 82.917969 C 147.316406 82.726562 146.855469 82.636719 146.46875 82.636719 C 145.125 82.636719 144.367188 83.839844 144.367188 85.082031 C 144.367188 86.25 144.996094 87.527344 146.546875 87.527344 C 146.957031 87.527344 147.46875 87.402344 147.839844 87.15625 L 147.929688 88.234375 C 147.433594 88.464844 146.855469 88.5 146.417969 88.5 C 144.445312 88.5 143.089844 86.953125 143.089844 85.082031 C 143.089844 83.097656 144.421875 81.664062 146.417969 81.664062 C 146.902344 81.664062 147.53125 81.777344 147.878906 81.917969 L 147.777344 82.917969 "/>
<path style=" stroke:none;fill-rule:nonzero;fill:rgb(13.729858%,12.159729%,12.548828%);fill-opacity:1;" d="M 149.210938 78.742188 L 150.414062 78.742188 L 150.414062 82.753906 L 150.4375 82.753906 C 150.875 82.0625 151.628906 81.664062 152.539062 81.664062 C 154.230469 81.664062 154.984375 82.714844 154.984375 84.46875 L 154.984375 88.347656 L 153.78125 88.347656 L 153.78125 84.96875 C 153.78125 83.445312 153.449219 82.703125 152.398438 82.636719 C 151.027344 82.636719 150.414062 83.738281 150.414062 85.328125 L 150.414062 88.347656 L 149.210938 88.347656 L 149.210938 78.742188 "/>
<path style=" stroke:none;fill-rule:nonzero;fill:rgb(13.729858%,12.159729%,12.548828%);fill-opacity:1;" d="M 156.953125 81.816406 L 158.117188 81.816406 L 158.117188 82.855469 L 158.144531 82.855469 C 158.503906 82.113281 159.375 81.664062 160.28125 81.664062 C 161.972656 81.664062 162.730469 82.714844 162.730469 84.46875 L 162.730469 88.347656 L 161.527344 88.347656 L 161.527344 84.96875 C 161.527344 83.445312 161.191406 82.703125 160.140625 82.636719 C 158.769531 82.636719 158.15625 83.738281 158.15625 85.328125 L 158.15625 88.347656 L 156.953125 88.347656 L 156.953125 81.816406 "/>
<path style=" stroke:none;fill-rule:nonzero;fill:rgb(13.729858%,12.159729%,12.548828%);fill-opacity:1;" d="M 167.617188 87.527344 C 169.023438 87.527344 169.652344 86.25 169.652344 85.082031 C 169.652344 83.839844 168.894531 82.636719 167.617188 82.636719 C 166.324219 82.636719 165.566406 83.839844 165.566406 85.082031 C 165.566406 86.25 166.195312 87.527344 167.617188 87.527344 Z M 167.617188 81.664062 C 169.601562 81.664062 170.933594 83.097656 170.933594 85.082031 C 170.933594 86.953125 169.574219 88.5 167.617188 88.5 C 165.644531 88.5 164.285156 86.953125 164.285156 85.082031 C 164.285156 83.097656 165.617188 81.664062 167.617188 81.664062 "/>
<path style=" stroke:none;fill-rule:nonzero;fill:rgb(13.729858%,12.159729%,12.548828%);fill-opacity:1;" d="M 172.605469 88.347656 L 173.808594 88.347656 L 173.808594 78.742188 L 172.605469 78.742188 Z M 172.605469 88.347656 "/>
<path style=" stroke:none;fill-rule:nonzero;fill:rgb(13.729858%,12.159729%,12.548828%);fill-opacity:1;" d="M 178.808594 87.527344 C 180.21875 87.527344 180.84375 86.25 180.84375 85.082031 C 180.84375 83.839844 180.089844 82.636719 178.808594 82.636719 C 177.515625 82.636719 176.757812 83.839844 176.757812 85.082031 C 176.757812 86.25 177.386719 87.527344 178.808594 87.527344 Z M 178.808594 81.664062 C 180.792969 81.664062 182.125 83.097656 182.125 85.082031 C 182.125 86.953125 180.765625 88.5 178.808594 88.5 C 176.835938 88.5 175.476562 86.953125 175.476562 85.082031 C 175.476562 83.097656 176.808594 81.664062 178.808594 81.664062 "/>
<path style=" stroke:none;fill-rule:nonzero;fill:rgb(13.729858%,12.159729%,12.548828%);fill-opacity:1;" d="M 188.34375 85.160156 C 188.34375 83.804688 187.714844 82.636719 186.433594 82.636719 C 185.21875 82.636719 184.613281 83.957031 184.613281 85.070312 C 184.613281 86.300781 185.308594 87.375 186.433594 87.375 C 187.558594 87.375 188.34375 86.375 188.34375 85.160156 Z M 189.546875 88.066406 C 189.546875 90.050781 188.519531 91.191406 186.175781 91.191406 C 185.484375 91.191406 184.886719 91.101562 183.832031 90.742188 L 183.960938 89.628906 C 184.886719 90.050781 185.433594 90.21875 186.316406 90.21875 C 187.585938 90.21875 188.34375 89.359375 188.34375 87.976562 L 188.34375 87.335938 L 188.316406 87.335938 C 187.804688 88.015625 186.957031 88.347656 186.125 88.347656 C 184.257812 88.347656 183.335938 86.824219 183.335938 85.132812 C 183.335938 83.457031 184.28125 81.664062 186.253906 81.664062 C 187.40625 81.664062 188.046875 82.085938 188.40625 82.789062 L 188.429688 82.789062 L 188.429688 81.816406 L 189.546875 81.816406 L 189.546875 88.066406 "/>
<path style=" stroke:none;fill-rule:nonzero;fill:rgb(13.729858%,12.159729%,12.548828%);fill-opacity:1;" d="M 191.140625 90.117188 C 191.292969 90.167969 191.496094 90.21875 191.703125 90.21875 C 192.777344 90.21875 193.136719 88.734375 193.136719 88.605469 C 193.136719 88.464844 192.984375 88.132812 192.90625 87.914062 L 190.691406 81.816406 L 192.011719 81.816406 L 193.761719 87.222656 L 193.789062 87.222656 L 195.582031 81.816406 L 196.796875 81.816406 L 194.390625 88.488281 C 193.941406 89.742188 193.46875 91.191406 191.882812 91.191406 C 191.496094 91.191406 191.28125 91.140625 191.0625 91.101562 L 191.140625 90.117188 "/>
</g>
</svg>
