<?xml version="1.0" encoding="UTF-8"?>
<svg xmlns="http://www.w3.org/2000/svg" xmlns:xlink="http://www.w3.org/1999/xlink" width="197pt" height="91pt" viewBox="0 0 197 91" version="1.1">
<defs>
<clipPath id="clip1">
  <path d="M 75 0.683594 L 196 0.683594 L 196 71 L 75 71 Z M 75 0.683594 "/>
</clipPath>
<clipPath id="clip2">
  <path d="M 53 0.683594 L 72 0.683594 L 72 71 L 53 71 Z M 53 0.683594 "/>
</clipPath>
<clipPath id="clip3">
  <path d="M 190 81 L 196.179688 81 L 196.179688 89 L 190 89 Z M 190 81 "/>
</clipPath>
</defs>
<g id="surface1">
<g clip-path="url(#clip1)" clip-rule="nonzero">
<path style=" stroke:none;fill-rule:evenodd;fill:rgb(13.729858%,12.159729%,12.548828%);fill-opacity:1;" d="M 122.378906 70.8125 L 100.992188 70.8125 L 75.578125 43.523438 L 75.578125 27.902344 L 100.199219 0.683594 L 122.234375 0.683594 L 93.863281 35.964844 Z M 144.839844 70.8125 L 125.617188 70.8125 L 125.617188 0.757812 L 144.839844 0.757812 Z M 195.746094 0.757812 L 149.449219 0.757812 L 149.449219 16.523438 L 162.984375 16.523438 L 162.984375 70.886719 L 182.210938 70.886719 L 182.210938 16.523438 L 195.746094 16.523438 L 195.746094 0.757812 "/>
</g>
<path style=" stroke:none;fill-rule:evenodd;fill:rgb(0%,66.195679%,56.338501%);fill-opacity:1;" d="M 16.175781 26.390625 C 12.503906 30.851562 9.335938 35.75 6.890625 41.003906 L 70.96875 70.8125 L 16.175781 26.390625 "/>
<path style=" stroke:none;fill-rule:evenodd;fill:rgb(0%,66.195679%,56.338501%);fill-opacity:1;" d="M 70.96875 70.8125 L 41.089844 7.234375 C 35.761719 9.683594 30.863281 12.707031 26.402344 16.308594 L 70.96875 70.8125 "/>
<g clip-path="url(#clip2)" clip-rule="nonzero">
<path style=" stroke:none;fill-rule:evenodd;fill:rgb(13.729858%,12.159729%,12.548828%);fill-opacity:1;" d="M 70.96875 70.8125 L 71.039062 0.757812 C 70.824219 0.757812 70.679688 0.757812 70.464844 0.757812 C 64.777344 0.757812 59.234375 1.476562 53.90625 2.773438 L 70.96875 70.8125 "/>
</g>
<path style=" stroke:none;fill-rule:evenodd;fill:rgb(0%,66.195679%,56.338501%);fill-opacity:1;" d="M 2.28125 53.675781 C 0.839844 59.148438 0.121094 64.90625 0.046875 70.8125 L 70.96875 70.8125 L 2.28125 53.675781 "/>
<path style=" stroke:none;fill-rule:nonzero;fill:rgb(13.729858%,12.159729%,12.548828%);fill-opacity:1;" d="M 0 88.230469 L 1.25 88.230469 L 1.25 83.960938 L 5.128906 88.230469 L 6.949219 88.230469 L 2.53125 83.636719 L 6.625 79.519531 L 4.96875 79.519531 L 1.25 83.351562 L 1.25 79.519531 L 0 79.519531 L 0 88.230469 "/>
<path style=" stroke:none;fill-rule:nonzero;fill:rgb(13.729858%,12.159729%,12.548828%);fill-opacity:1;" d="M 11.855469 85.757812 C 11.855469 86.074219 11.789062 86.363281 11.65625 86.613281 C 11.523438 86.863281 11.324219 87.0625 11.0625 87.207031 C 10.796875 87.355469 10.472656 87.429688 10.085938 87.429688 C 9.949219 87.429688 9.8125 87.40625 9.675781 87.363281 C 9.535156 87.320312 9.40625 87.253906 9.292969 87.167969 C 9.175781 87.078125 9.082031 86.96875 9.011719 86.84375 C 8.9375 86.710938 8.902344 86.5625 8.898438 86.394531 C 8.902344 86.171875 8.960938 85.984375 9.070312 85.835938 C 9.175781 85.6875 9.320312 85.570312 9.496094 85.480469 C 9.667969 85.390625 9.855469 85.324219 10.054688 85.277344 C 10.257812 85.234375 10.449219 85.207031 10.636719 85.191406 C 10.820312 85.175781 10.976562 85.167969 11.109375 85.171875 C 11.234375 85.171875 11.359375 85.175781 11.484375 85.183594 C 11.609375 85.191406 11.734375 85.195312 11.855469 85.195312 Z M 8.4375 83.3125 C 8.597656 83.179688 8.78125 83.0625 8.980469 82.96875 C 9.183594 82.867188 9.394531 82.792969 9.617188 82.742188 C 9.839844 82.6875 10.0625 82.664062 10.285156 82.664062 C 10.675781 82.664062 10.984375 82.726562 11.214844 82.847656 C 11.445312 82.972656 11.609375 83.15625 11.710938 83.402344 C 11.8125 83.652344 11.859375 83.957031 11.855469 84.324219 C 11.707031 84.3125 11.566406 84.308594 11.429688 84.304688 C 11.300781 84.300781 11.167969 84.300781 11.035156 84.296875 C 10.90625 84.296875 10.761719 84.296875 10.609375 84.296875 C 10.363281 84.296875 10.105469 84.320312 9.835938 84.363281 C 9.566406 84.40625 9.304688 84.476562 9.046875 84.574219 C 8.789062 84.675781 8.554688 84.804688 8.34375 84.964844 C 8.132812 85.128906 7.96875 85.328125 7.84375 85.5625 C 7.71875 85.800781 7.65625 86.074219 7.652344 86.394531 C 7.65625 86.855469 7.757812 87.230469 7.949219 87.523438 C 8.148438 87.816406 8.421875 88.035156 8.769531 88.171875 C 9.121094 88.3125 9.523438 88.378906 9.984375 88.378906 C 10.253906 88.375 10.496094 88.34375 10.707031 88.28125 C 10.921875 88.21875 11.109375 88.136719 11.269531 88.039062 C 11.433594 87.9375 11.570312 87.832031 11.683594 87.722656 C 11.796875 87.609375 11.890625 87.507812 11.957031 87.40625 L 11.980469 87.40625 L 11.980469 88.230469 L 13.082031 88.230469 C 13.074219 88.167969 13.0625 88.085938 13.054688 87.984375 C 13.050781 87.878906 13.042969 87.746094 13.039062 87.582031 C 13.03125 87.421875 13.03125 87.21875 13.03125 86.980469 L 13.03125 84.347656 C 13.03125 83.769531 12.949219 83.285156 12.773438 82.894531 C 12.597656 82.503906 12.320312 82.207031 11.945312 82.011719 C 11.570312 81.8125 11.078125 81.714844 10.472656 81.714844 C 10.066406 81.71875 9.691406 81.773438 9.339844 81.882812 C 8.988281 81.992188 8.667969 82.136719 8.375 82.3125 L 8.4375 83.3125 "/>
<path style=" stroke:none;fill-rule:nonzero;fill:rgb(13.729858%,12.159729%,12.548828%);fill-opacity:1;" d="M 14.941406 88.230469 L 16.113281 88.230469 L 16.113281 85.332031 C 16.117188 84.800781 16.191406 84.335938 16.332031 83.949219 C 16.476562 83.5625 16.675781 83.261719 16.933594 83.054688 C 17.191406 82.84375 17.496094 82.738281 17.847656 82.738281 C 17.953125 82.738281 18.058594 82.742188 18.167969 82.761719 C 18.28125 82.777344 18.390625 82.804688 18.5 82.851562 L 18.5 81.800781 C 18.417969 81.785156 18.339844 81.769531 18.265625 81.757812 C 18.191406 81.742188 18.109375 81.734375 18.023438 81.726562 C 17.941406 81.71875 17.839844 81.714844 17.726562 81.714844 C 17.496094 81.71875 17.277344 81.765625 17.0625 81.863281 C 16.851562 81.957031 16.65625 82.089844 16.484375 82.261719 C 16.308594 82.433594 16.171875 82.628906 16.066406 82.851562 L 16.039062 82.851562 L 16.039062 81.863281 L 14.941406 81.863281 L 14.941406 88.230469 "/>
<path style=" stroke:none;fill-rule:nonzero;fill:rgb(13.729858%,12.159729%,12.548828%);fill-opacity:1;" d="M 19.871094 88.230469 L 21.046875 88.230469 L 21.046875 78.867188 L 19.871094 78.867188 L 19.871094 88.230469 "/>
<path style=" stroke:none;fill-rule:nonzero;fill:rgb(13.729858%,12.159729%,12.548828%);fill-opacity:1;" d="M 22.582031 88.03125 C 22.851562 88.167969 23.136719 88.265625 23.433594 88.3125 C 23.726562 88.359375 24.027344 88.382812 24.332031 88.378906 C 24.617188 88.378906 24.890625 88.339844 25.15625 88.261719 C 25.417969 88.179688 25.65625 88.058594 25.867188 87.894531 C 26.074219 87.734375 26.242188 87.527344 26.363281 87.277344 C 26.488281 87.03125 26.550781 86.734375 26.550781 86.394531 C 26.550781 86.105469 26.496094 85.859375 26.398438 85.65625 C 26.300781 85.457031 26.167969 85.285156 26.003906 85.144531 C 25.84375 85.003906 25.660156 84.886719 25.464844 84.785156 C 25.269531 84.683594 25.074219 84.59375 24.878906 84.507812 C 24.683594 84.417969 24.503906 84.328125 24.339844 84.234375 C 24.175781 84.140625 24.042969 84.03125 23.945312 83.902344 C 23.847656 83.773438 23.796875 83.621094 23.792969 83.4375 C 23.796875 83.261719 23.847656 83.117188 23.953125 83 C 24.054688 82.886719 24.191406 82.800781 24.359375 82.746094 C 24.527344 82.6875 24.714844 82.664062 24.917969 82.664062 C 24.988281 82.664062 25.078125 82.675781 25.191406 82.6875 C 25.300781 82.707031 25.414062 82.734375 25.539062 82.765625 C 25.664062 82.792969 25.777344 82.828125 25.886719 82.867188 C 25.996094 82.90625 26.082031 82.945312 26.152344 82.988281 L 26.253906 81.964844 C 26.023438 81.894531 25.789062 81.835938 25.554688 81.789062 C 25.320312 81.742188 25.066406 81.71875 24.792969 81.714844 C 24.476562 81.714844 24.179688 81.753906 23.910156 81.835938 C 23.636719 81.914062 23.402344 82.039062 23.195312 82.199219 C 22.992188 82.359375 22.832031 82.5625 22.71875 82.808594 C 22.605469 83.054688 22.546875 83.34375 22.546875 83.675781 C 22.546875 83.925781 22.597656 84.144531 22.699219 84.332031 C 22.796875 84.519531 22.929688 84.679688 23.09375 84.816406 C 23.257812 84.949219 23.433594 85.074219 23.632812 85.175781 C 23.828125 85.28125 24.023438 85.382812 24.21875 85.472656 C 24.414062 85.566406 24.59375 85.664062 24.757812 85.761719 C 24.921875 85.855469 25.050781 85.96875 25.152344 86.089844 C 25.25 86.210938 25.300781 86.355469 25.304688 86.519531 C 25.300781 86.691406 25.265625 86.832031 25.191406 86.953125 C 25.121094 87.070312 25.023438 87.164062 24.90625 87.230469 C 24.789062 87.304688 24.660156 87.355469 24.519531 87.386719 C 24.378906 87.417969 24.242188 87.429688 24.105469 87.429688 C 23.988281 87.429688 23.847656 87.414062 23.679688 87.382812 C 23.511719 87.347656 23.335938 87.296875 23.15625 87.230469 C 22.972656 87.164062 22.804688 87.082031 22.644531 86.980469 L 22.582031 88.03125 "/>
<path style=" stroke:none;fill-rule:nonzero;fill:rgb(13.729858%,12.159729%,12.548828%);fill-opacity:1;" d="M 27.902344 88.230469 L 29.074219 88.230469 L 29.074219 85.332031 C 29.078125 84.800781 29.148438 84.335938 29.289062 83.949219 C 29.433594 83.5625 29.632812 83.261719 29.894531 83.054688 C 30.152344 82.84375 30.457031 82.738281 30.808594 82.738281 C 30.910156 82.738281 31.015625 82.742188 31.128906 82.761719 C 31.242188 82.777344 31.347656 82.804688 31.457031 82.851562 L 31.457031 81.800781 C 31.378906 81.785156 31.296875 81.769531 31.226562 81.757812 C 31.152344 81.742188 31.070312 81.734375 30.984375 81.726562 C 30.898438 81.71875 30.796875 81.714844 30.683594 81.714844 C 30.457031 81.71875 30.238281 81.765625 30.023438 81.863281 C 29.808594 81.957031 29.617188 82.089844 29.445312 82.261719 C 29.269531 82.433594 29.128906 82.628906 29.023438 82.851562 L 29 82.851562 L 29 81.863281 L 27.902344 81.863281 L 27.902344 88.230469 "/>
<path style=" stroke:none;fill-rule:nonzero;fill:rgb(13.729858%,12.159729%,12.548828%);fill-opacity:1;" d="M 38.3125 81.863281 L 37.136719 81.863281 L 37.136719 84.808594 C 37.136719 85.199219 37.101562 85.550781 37.023438 85.875 C 36.945312 86.195312 36.832031 86.46875 36.671875 86.699219 C 36.515625 86.933594 36.3125 87.113281 36.070312 87.238281 C 35.824219 87.367188 35.535156 87.429688 35.203125 87.429688 C 34.863281 87.410156 34.597656 87.3125 34.398438 87.144531 C 34.203125 86.972656 34.0625 86.722656 33.976562 86.394531 C 33.894531 86.066406 33.851562 85.65625 33.855469 85.160156 L 33.855469 81.863281 L 32.683594 81.863281 L 32.683594 85.644531 C 32.683594 86.21875 32.765625 86.707031 32.933594 87.113281 C 33.101562 87.523438 33.363281 87.832031 33.714844 88.050781 C 34.066406 88.265625 34.519531 88.375 35.066406 88.378906 C 35.363281 88.375 35.652344 88.332031 35.921875 88.238281 C 36.195312 88.144531 36.4375 88.011719 36.652344 87.839844 C 36.863281 87.667969 37.03125 87.460938 37.152344 87.21875 L 37.175781 87.21875 L 37.175781 88.230469 L 38.3125 88.230469 L 38.3125 81.863281 "/>
<path style=" stroke:none;fill-rule:nonzero;fill:rgb(13.729858%,12.159729%,12.548828%);fill-opacity:1;" d="M 40.234375 88.230469 L 41.40625 88.230469 L 41.40625 85.285156 C 41.40625 84.894531 41.445312 84.542969 41.523438 84.21875 C 41.597656 83.898438 41.714844 83.625 41.875 83.394531 C 42.03125 83.160156 42.234375 82.980469 42.476562 82.855469 C 42.71875 82.726562 43.011719 82.664062 43.34375 82.664062 C 43.679688 82.683594 43.949219 82.777344 44.148438 82.949219 C 44.34375 83.121094 44.484375 83.371094 44.566406 83.699219 C 44.652344 84.027344 44.691406 84.4375 44.691406 84.933594 L 44.691406 88.230469 L 45.863281 88.230469 L 45.863281 84.449219 C 45.867188 83.875 45.78125 83.386719 45.613281 82.980469 C 45.445312 82.570312 45.179688 82.261719 44.828125 82.042969 C 44.476562 81.824219 44.027344 81.71875 43.480469 81.714844 C 43.03125 81.71875 42.636719 81.808594 42.285156 81.992188 C 41.933594 82.175781 41.648438 82.4375 41.433594 82.773438 L 41.40625 82.773438 L 41.40625 78.867188 L 40.234375 78.867188 L 40.234375 88.230469 "/>
<path style=" stroke:none;fill-rule:nonzero;fill:rgb(13.729858%,12.159729%,12.548828%);fill-opacity:1;" d="M 48.609375 84.4375 C 48.632812 84.226562 48.679688 84.019531 48.753906 83.8125 C 48.828125 83.605469 48.929688 83.414062 49.070312 83.238281 C 49.203125 83.066406 49.375 82.929688 49.582031 82.824219 C 49.789062 82.71875 50.035156 82.664062 50.320312 82.664062 C 50.574219 82.664062 50.796875 82.710938 50.996094 82.800781 C 51.191406 82.894531 51.355469 83.019531 51.492188 83.183594 C 51.628906 83.34375 51.730469 83.535156 51.800781 83.746094 C 51.871094 83.960938 51.90625 84.1875 51.90625 84.4375 Z M 52.667969 86.792969 C 52.59375 86.855469 52.488281 86.921875 52.347656 86.992188 C 52.210938 87.066406 52.050781 87.136719 51.871094 87.203125 C 51.691406 87.269531 51.5 87.324219 51.300781 87.363281 C 51.101562 87.40625 50.902344 87.429688 50.707031 87.429688 C 50.425781 87.429688 50.164062 87.378906 49.910156 87.277344 C 49.660156 87.175781 49.4375 87.03125 49.242188 86.84375 C 49.046875 86.65625 48.894531 86.429688 48.78125 86.171875 C 48.671875 85.914062 48.613281 85.625 48.609375 85.308594 L 53.152344 85.308594 C 53.15625 84.792969 53.109375 84.320312 53.015625 83.882812 C 52.917969 83.449219 52.761719 83.070312 52.546875 82.742188 C 52.328125 82.417969 52.039062 82.167969 51.679688 81.988281 C 51.320312 81.808594 50.875 81.71875 50.34375 81.714844 C 49.894531 81.71875 49.488281 81.796875 49.121094 81.949219 C 48.757812 82.109375 48.441406 82.332031 48.179688 82.617188 C 47.917969 82.90625 47.714844 83.242188 47.578125 83.636719 C 47.433594 84.027344 47.363281 84.460938 47.363281 84.933594 C 47.363281 85.453125 47.425781 85.925781 47.558594 86.347656 C 47.691406 86.769531 47.894531 87.132812 48.164062 87.433594 C 48.433594 87.738281 48.777344 87.96875 49.1875 88.132812 C 49.605469 88.296875 50.09375 88.375 50.65625 88.378906 C 51.003906 88.375 51.300781 88.355469 51.546875 88.308594 C 51.789062 88.261719 52 88.207031 52.179688 88.144531 C 52.355469 88.082031 52.519531 88.023438 52.667969 87.96875 L 52.667969 86.792969 "/>
<path style=" stroke:none;fill-rule:nonzero;fill:rgb(13.729858%,12.159729%,12.548828%);fill-opacity:1;" d="M 54.652344 88.230469 L 55.828125 88.230469 L 55.828125 85.332031 C 55.828125 84.800781 55.902344 84.335938 56.042969 83.949219 C 56.1875 83.5625 56.386719 83.261719 56.644531 83.054688 C 56.902344 82.84375 57.210938 82.738281 57.5625 82.738281 C 57.664062 82.738281 57.769531 82.742188 57.882812 82.761719 C 57.992188 82.777344 58.101562 82.804688 58.210938 82.851562 L 58.210938 81.800781 C 58.128906 81.785156 58.050781 81.769531 57.976562 81.757812 C 57.902344 81.742188 57.820312 81.734375 57.734375 81.726562 C 57.652344 81.71875 57.550781 81.714844 57.4375 81.714844 C 57.210938 81.71875 56.988281 81.765625 56.773438 81.863281 C 56.5625 81.957031 56.367188 82.089844 56.195312 82.261719 C 56.023438 82.433594 55.882812 82.628906 55.777344 82.851562 L 55.75 82.851562 L 55.75 81.863281 L 54.652344 81.863281 L 54.652344 88.230469 "/>
<path style=" stroke:none;fill-rule:nonzero;fill:rgb(13.729858%,12.159729%,12.548828%);fill-opacity:1;" d="M 63.015625 88.230469 L 64.265625 88.230469 L 64.265625 79.519531 L 63.015625 79.519531 L 63.015625 88.230469 "/>
<path style=" stroke:none;fill-rule:nonzero;fill:rgb(13.729858%,12.159729%,12.548828%);fill-opacity:1;" d="M 66.300781 88.230469 L 67.472656 88.230469 L 67.472656 85.285156 C 67.472656 84.894531 67.511719 84.542969 67.589844 84.21875 C 67.664062 83.898438 67.78125 83.625 67.941406 83.394531 C 68.097656 83.160156 68.296875 82.980469 68.542969 82.855469 C 68.785156 82.726562 69.074219 82.664062 69.40625 82.664062 C 69.746094 82.683594 70.015625 82.777344 70.214844 82.949219 C 70.410156 83.121094 70.550781 83.371094 70.632812 83.699219 C 70.71875 84.027344 70.757812 84.4375 70.757812 84.933594 L 70.757812 88.230469 L 71.929688 88.230469 L 71.929688 84.449219 C 71.929688 83.875 71.84375 83.386719 71.675781 82.980469 C 71.507812 82.570312 71.246094 82.261719 70.894531 82.042969 C 70.542969 81.824219 70.09375 81.71875 69.542969 81.714844 C 69.246094 81.714844 68.960938 81.761719 68.6875 81.855469 C 68.414062 81.949219 68.171875 82.078125 67.960938 82.253906 C 67.746094 82.425781 67.578125 82.632812 67.460938 82.875 L 67.4375 82.875 L 67.4375 81.863281 L 66.300781 81.863281 L 66.300781 88.230469 "/>
<path style=" stroke:none;fill-rule:nonzero;fill:rgb(13.729858%,12.159729%,12.548828%);fill-opacity:1;" d="M 73.316406 88.03125 C 73.585938 88.167969 73.867188 88.265625 74.167969 88.3125 C 74.460938 88.359375 74.761719 88.382812 75.0625 88.378906 C 75.351562 88.378906 75.625 88.339844 75.890625 88.261719 C 76.152344 88.179688 76.390625 88.058594 76.601562 87.894531 C 76.808594 87.734375 76.972656 87.527344 77.097656 87.277344 C 77.21875 87.03125 77.28125 86.734375 77.285156 86.394531 C 77.28125 86.105469 77.230469 85.859375 77.132812 85.65625 C 77.03125 85.457031 76.902344 85.285156 76.738281 85.144531 C 76.574219 85.003906 76.394531 84.886719 76.199219 84.785156 C 76.003906 84.683594 75.808594 84.59375 75.613281 84.507812 C 75.417969 84.417969 75.234375 84.328125 75.074219 84.234375 C 74.910156 84.140625 74.777344 84.03125 74.679688 83.902344 C 74.582031 83.773438 74.527344 83.621094 74.527344 83.4375 C 74.527344 83.261719 74.582031 83.117188 74.683594 83 C 74.785156 82.886719 74.921875 82.800781 75.09375 82.746094 C 75.261719 82.6875 75.449219 82.664062 75.648438 82.664062 C 75.71875 82.664062 75.8125 82.675781 75.921875 82.6875 C 76.03125 82.707031 76.148438 82.734375 76.273438 82.765625 C 76.398438 82.792969 76.511719 82.828125 76.621094 82.867188 C 76.730469 82.90625 76.816406 82.945312 76.886719 82.988281 L 76.984375 81.964844 C 76.757812 81.894531 76.523438 81.835938 76.289062 81.789062 C 76.050781 81.742188 75.796875 81.71875 75.523438 81.714844 C 75.210938 81.714844 74.914062 81.753906 74.644531 81.835938 C 74.371094 81.914062 74.132812 82.039062 73.929688 82.199219 C 73.726562 82.359375 73.566406 82.5625 73.453125 82.808594 C 73.339844 83.054688 73.28125 83.34375 73.277344 83.675781 C 73.28125 83.925781 73.332031 84.144531 73.433594 84.332031 C 73.53125 84.519531 73.660156 84.679688 73.824219 84.816406 C 73.988281 84.949219 74.167969 85.074219 74.363281 85.175781 C 74.558594 85.28125 74.753906 85.382812 74.953125 85.472656 C 75.148438 85.566406 75.328125 85.664062 75.488281 85.761719 C 75.652344 85.855469 75.785156 85.96875 75.886719 86.089844 C 75.980469 86.210938 76.035156 86.355469 76.035156 86.519531 C 76.035156 86.691406 75.996094 86.832031 75.925781 86.953125 C 75.851562 87.070312 75.757812 87.164062 75.640625 87.230469 C 75.519531 87.304688 75.390625 87.355469 75.253906 87.386719 C 75.113281 87.417969 74.972656 87.429688 74.839844 87.429688 C 74.722656 87.429688 74.582031 87.414062 74.410156 87.382812 C 74.242188 87.347656 74.070312 87.296875 73.886719 87.230469 C 73.707031 87.164062 73.535156 87.082031 73.378906 86.980469 L 73.316406 88.03125 "/>
<path style=" stroke:none;fill-rule:nonzero;fill:rgb(13.729858%,12.159729%,12.548828%);fill-opacity:1;" d="M 82.015625 81.863281 L 80.332031 81.863281 L 80.332031 80.019531 L 79.15625 80.390625 L 79.15625 81.863281 L 77.722656 81.863281 L 77.722656 82.8125 L 79.15625 82.8125 L 79.15625 86.53125 C 79.160156 86.957031 79.238281 87.304688 79.398438 87.574219 C 79.554688 87.847656 79.78125 88.050781 80.070312 88.183594 C 80.363281 88.3125 80.710938 88.378906 81.117188 88.378906 C 81.308594 88.375 81.488281 88.355469 81.660156 88.320312 C 81.832031 88.28125 81.984375 88.242188 82.117188 88.203125 L 82.117188 87.207031 C 82.027344 87.261719 81.917969 87.316406 81.789062 87.359375 C 81.65625 87.40625 81.496094 87.429688 81.316406 87.429688 C 81.136719 87.429688 80.972656 87.386719 80.824219 87.300781 C 80.675781 87.210938 80.554688 87.085938 80.46875 86.917969 C 80.378906 86.75 80.332031 86.539062 80.332031 86.292969 L 80.332031 82.8125 L 82.015625 82.8125 L 82.015625 81.863281 "/>
<path style=" stroke:none;fill-rule:nonzero;fill:rgb(13.729858%,12.159729%,12.548828%);fill-opacity:1;" d="M 84.8125 79.117188 L 83.488281 79.117188 L 83.488281 80.441406 L 84.8125 80.441406 Z M 83.566406 88.230469 L 84.738281 88.230469 L 84.738281 81.863281 L 83.566406 81.863281 L 83.566406 88.230469 "/>
<path style=" stroke:none;fill-rule:nonzero;fill:rgb(13.729858%,12.159729%,12.548828%);fill-opacity:1;" d="M 90.195312 81.863281 L 88.507812 81.863281 L 88.507812 80.019531 L 87.335938 80.390625 L 87.335938 81.863281 L 85.902344 81.863281 L 85.902344 82.8125 L 87.335938 82.8125 L 87.335938 86.53125 C 87.339844 86.957031 87.417969 87.304688 87.574219 87.574219 C 87.734375 87.847656 87.957031 88.050781 88.25 88.183594 C 88.542969 88.3125 88.890625 88.378906 89.296875 88.378906 C 89.484375 88.375 89.664062 88.355469 89.835938 88.320312 C 90.007812 88.28125 90.160156 88.242188 90.292969 88.203125 L 90.292969 87.207031 C 90.207031 87.261719 90.097656 87.316406 89.964844 87.359375 C 89.832031 87.40625 89.675781 87.429688 89.496094 87.429688 C 89.3125 87.429688 89.148438 87.386719 89 87.300781 C 88.851562 87.210938 88.734375 87.085938 88.648438 86.917969 C 88.554688 86.75 88.511719 86.539062 88.507812 86.292969 L 88.507812 82.8125 L 90.195312 82.8125 L 90.195312 81.863281 "/>
<path style=" stroke:none;fill-rule:nonzero;fill:rgb(13.729858%,12.159729%,12.548828%);fill-opacity:1;" d="M 97.222656 81.863281 L 96.046875 81.863281 L 96.046875 84.808594 C 96.046875 85.199219 96.011719 85.550781 95.933594 85.875 C 95.855469 86.195312 95.742188 86.46875 95.582031 86.699219 C 95.425781 86.933594 95.222656 87.113281 94.980469 87.238281 C 94.734375 87.367188 94.449219 87.429688 94.113281 87.429688 C 93.777344 87.410156 93.507812 87.3125 93.308594 87.144531 C 93.109375 86.972656 92.972656 86.722656 92.890625 86.394531 C 92.804688 86.066406 92.765625 85.65625 92.765625 85.160156 L 92.765625 81.863281 L 91.59375 81.863281 L 91.59375 85.644531 C 91.59375 86.21875 91.675781 86.707031 91.84375 87.113281 C 92.015625 87.523438 92.277344 87.832031 92.628906 88.050781 C 92.976562 88.265625 93.429688 88.375 93.976562 88.378906 C 94.273438 88.375 94.5625 88.332031 94.835938 88.238281 C 95.105469 88.144531 95.347656 88.011719 95.5625 87.839844 C 95.777344 87.667969 95.941406 87.460938 96.0625 87.21875 L 96.085938 87.21875 L 96.085938 88.230469 L 97.222656 88.230469 L 97.222656 81.863281 "/>
<path style=" stroke:none;fill-rule:nonzero;fill:rgb(13.729858%,12.159729%,12.548828%);fill-opacity:1;" d="M 102.527344 81.863281 L 100.84375 81.863281 L 100.84375 80.019531 L 99.667969 80.390625 L 99.667969 81.863281 L 98.234375 81.863281 L 98.234375 82.8125 L 99.667969 82.8125 L 99.667969 86.53125 C 99.671875 86.957031 99.75 87.304688 99.910156 87.574219 C 100.066406 87.847656 100.292969 88.050781 100.582031 88.183594 C 100.875 88.3125 101.222656 88.378906 101.628906 88.378906 C 101.816406 88.375 102 88.355469 102.171875 88.320312 C 102.34375 88.28125 102.492188 88.242188 102.628906 88.203125 L 102.628906 87.207031 C 102.539062 87.261719 102.429688 87.316406 102.300781 87.359375 C 102.164062 87.40625 102.011719 87.429688 101.828125 87.429688 C 101.648438 87.429688 101.484375 87.386719 101.335938 87.300781 C 101.1875 87.210938 101.066406 87.085938 100.980469 86.917969 C 100.890625 86.75 100.84375 86.539062 100.84375 86.292969 L 100.84375 82.8125 L 102.527344 82.8125 L 102.527344 81.863281 "/>
<path style=" stroke:none;fill-rule:nonzero;fill:rgb(13.729858%,12.159729%,12.548828%);fill-opacity:1;" d="M 108.15625 88.230469 L 109.332031 88.230469 L 109.332031 82.8125 L 111.015625 82.8125 L 111.015625 81.863281 L 109.332031 81.863281 L 109.332031 81.175781 C 109.328125 80.960938 109.34375 80.761719 109.367188 80.578125 C 109.390625 80.394531 109.441406 80.234375 109.519531 80.097656 C 109.597656 79.964844 109.710938 79.855469 109.863281 79.78125 C 110.015625 79.707031 110.214844 79.667969 110.46875 79.667969 C 110.566406 79.667969 110.671875 79.671875 110.769531 79.6875 C 110.871094 79.699219 110.957031 79.71875 111.027344 79.742188 L 111.078125 78.792969 C 110.960938 78.777344 110.835938 78.757812 110.707031 78.742188 C 110.578125 78.726562 110.441406 78.71875 110.292969 78.71875 C 109.859375 78.71875 109.507812 78.78125 109.226562 78.902344 C 108.949219 79.019531 108.730469 79.195312 108.574219 79.417969 C 108.417969 79.644531 108.308594 79.910156 108.246094 80.226562 C 108.183594 80.539062 108.15625 80.890625 108.15625 81.277344 L 108.15625 81.863281 L 106.660156 81.863281 L 106.660156 82.8125 L 108.15625 82.8125 L 108.15625 88.230469 "/>
<path style=" stroke:none;fill-rule:nonzero;fill:rgb(13.729858%,12.159729%,12.548828%);fill-opacity:1;" d="M 117.808594 81.863281 L 116.632812 81.863281 L 116.632812 84.808594 C 116.632812 85.199219 116.597656 85.550781 116.519531 85.875 C 116.441406 86.195312 116.324219 86.46875 116.167969 86.699219 C 116.011719 86.933594 115.808594 87.113281 115.5625 87.238281 C 115.320312 87.367188 115.03125 87.429688 114.699219 87.429688 C 114.359375 87.410156 114.09375 87.3125 113.894531 87.144531 C 113.695312 86.972656 113.558594 86.722656 113.472656 86.394531 C 113.390625 86.066406 113.351562 85.65625 113.351562 85.160156 L 113.351562 81.863281 L 112.179688 81.863281 L 112.179688 85.644531 C 112.179688 86.21875 112.261719 86.707031 112.429688 87.113281 C 112.597656 87.523438 112.859375 87.832031 113.210938 88.050781 C 113.5625 88.265625 114.015625 88.375 114.5625 88.378906 C 114.859375 88.375 115.144531 88.332031 115.417969 88.238281 C 115.691406 88.144531 115.933594 88.011719 116.148438 87.839844 C 116.359375 87.667969 116.527344 87.460938 116.644531 87.21875 L 116.671875 87.21875 L 116.671875 88.230469 L 117.808594 88.230469 Z M 115.4375 80.890625 L 116.609375 80.890625 L 116.609375 79.644531 L 115.4375 79.644531 Z M 113.390625 80.890625 L 114.5625 80.890625 L 114.5625 79.644531 L 113.390625 79.644531 L 113.390625 80.890625 "/>
<path style=" stroke:none;fill-rule:nonzero;fill:rgb(13.729858%,12.159729%,12.548828%);fill-opacity:1;" d="M 119.730469 88.230469 L 120.902344 88.230469 L 120.902344 85.332031 C 120.90625 84.800781 120.980469 84.335938 121.121094 83.949219 C 121.265625 83.5625 121.464844 83.261719 121.722656 83.054688 C 121.980469 82.84375 122.285156 82.738281 122.640625 82.738281 C 122.738281 82.738281 122.847656 82.742188 122.960938 82.761719 C 123.070312 82.777344 123.179688 82.804688 123.285156 82.851562 L 123.285156 81.800781 C 123.207031 81.785156 123.128906 81.769531 123.054688 81.757812 C 122.980469 81.742188 122.898438 81.734375 122.8125 81.726562 C 122.730469 81.71875 122.628906 81.714844 122.515625 81.714844 C 122.285156 81.71875 122.066406 81.765625 121.851562 81.863281 C 121.640625 81.957031 121.445312 82.089844 121.273438 82.261719 C 121.101562 82.433594 120.960938 82.628906 120.855469 82.851562 L 120.828125 82.851562 L 120.828125 81.863281 L 119.730469 81.863281 L 119.730469 88.230469 "/>
<path style=" stroke:none;fill-rule:nonzero;fill:rgb(13.729858%,12.159729%,12.548828%);fill-opacity:1;" d="M 129.828125 88.230469 L 131.078125 88.230469 L 131.078125 80.617188 L 133.785156 80.617188 L 133.785156 79.519531 L 127.121094 79.519531 L 127.121094 80.617188 L 129.828125 80.617188 L 129.828125 88.230469 "/>
<path style=" stroke:none;fill-rule:nonzero;fill:rgb(13.729858%,12.159729%,12.548828%);fill-opacity:1;" d="M 134.746094 84.4375 C 134.769531 84.226562 134.816406 84.019531 134.890625 83.8125 C 134.964844 83.605469 135.066406 83.414062 135.203125 83.238281 C 135.339844 83.066406 135.511719 82.929688 135.71875 82.824219 C 135.925781 82.71875 136.171875 82.664062 136.457031 82.664062 C 136.710938 82.664062 136.9375 82.710938 137.132812 82.800781 C 137.328125 82.894531 137.492188 83.019531 137.628906 83.183594 C 137.765625 83.34375 137.867188 83.535156 137.9375 83.746094 C 138.007812 83.960938 138.042969 84.1875 138.042969 84.4375 Z M 138.804688 86.792969 C 138.730469 86.855469 138.625 86.921875 138.484375 86.992188 C 138.347656 87.066406 138.1875 87.136719 138.007812 87.203125 C 137.824219 87.269531 137.636719 87.324219 137.4375 87.363281 C 137.238281 87.40625 137.039062 87.429688 136.84375 87.429688 C 136.5625 87.429688 136.300781 87.378906 136.046875 87.277344 C 135.796875 87.175781 135.574219 87.03125 135.378906 86.84375 C 135.183594 86.65625 135.03125 86.429688 134.917969 86.171875 C 134.808594 85.914062 134.75 85.625 134.746094 85.308594 L 139.289062 85.308594 C 139.292969 84.792969 139.242188 84.320312 139.152344 83.882812 C 139.054688 83.449219 138.898438 83.070312 138.683594 82.742188 C 138.464844 82.417969 138.179688 82.167969 137.816406 81.988281 C 137.457031 81.808594 137.011719 81.71875 136.480469 81.714844 C 136.03125 81.71875 135.621094 81.796875 135.257812 81.949219 C 134.894531 82.109375 134.578125 82.332031 134.316406 82.617188 C 134.054688 82.90625 133.855469 83.242188 133.714844 83.636719 C 133.570312 84.027344 133.503906 84.460938 133.5 84.933594 C 133.5 85.453125 133.5625 85.925781 133.695312 86.347656 C 133.828125 86.769531 134.03125 87.132812 134.300781 87.433594 C 134.570312 87.738281 134.910156 87.96875 135.324219 88.132812 C 135.742188 88.296875 136.230469 88.375 136.796875 88.378906 C 137.140625 88.375 137.4375 88.355469 137.683594 88.308594 C 137.925781 88.261719 138.136719 88.207031 138.316406 88.144531 C 138.492188 88.082031 138.65625 88.023438 138.804688 87.96875 L 138.804688 86.792969 "/>
<path style=" stroke:none;fill-rule:nonzero;fill:rgb(13.729858%,12.159729%,12.548828%);fill-opacity:1;" d="M 144.933594 81.964844 C 144.816406 81.917969 144.683594 81.875 144.519531 81.835938 C 144.359375 81.800781 144.191406 81.769531 144.015625 81.75 C 143.839844 81.726562 143.671875 81.714844 143.511719 81.714844 C 143.019531 81.71875 142.578125 81.800781 142.183594 81.960938 C 141.785156 82.125 141.441406 82.355469 141.15625 82.65625 C 140.871094 82.953125 140.652344 83.304688 140.496094 83.707031 C 140.34375 84.113281 140.269531 84.558594 140.265625 85.046875 C 140.269531 85.503906 140.347656 85.933594 140.503906 86.335938 C 140.65625 86.738281 140.878906 87.089844 141.167969 87.394531 C 141.453125 87.699219 141.796875 87.941406 142.191406 88.113281 C 142.589844 88.289062 143.027344 88.375 143.511719 88.378906 C 143.652344 88.378906 143.808594 88.375 143.972656 88.359375 C 144.140625 88.347656 144.308594 88.324219 144.480469 88.285156 C 144.652344 88.246094 144.816406 88.191406 144.984375 88.117188 L 144.894531 87.070312 C 144.773438 87.148438 144.640625 87.214844 144.496094 87.269531 C 144.355469 87.324219 144.207031 87.363281 144.058594 87.386719 C 143.910156 87.417969 143.769531 87.429688 143.636719 87.429688 C 143.335938 87.429688 143.066406 87.382812 142.835938 87.292969 C 142.605469 87.203125 142.402344 87.078125 142.234375 86.917969 C 142.066406 86.761719 141.933594 86.582031 141.824219 86.375 C 141.71875 86.171875 141.640625 85.957031 141.589844 85.730469 C 141.539062 85.503906 141.515625 85.273438 141.515625 85.046875 C 141.515625 84.742188 141.558594 84.445312 141.648438 84.164062 C 141.738281 83.878906 141.871094 83.625 142.046875 83.402344 C 142.222656 83.175781 142.433594 82.996094 142.6875 82.863281 C 142.941406 82.734375 143.230469 82.664062 143.5625 82.664062 C 143.75 82.664062 143.949219 82.683594 144.167969 82.730469 C 144.386719 82.773438 144.605469 82.84375 144.835938 82.9375 L 144.933594 81.964844 "/>
<path style=" stroke:none;fill-rule:nonzero;fill:rgb(13.729858%,12.159729%,12.548828%);fill-opacity:1;" d="M 146.257812 88.230469 L 147.429688 88.230469 L 147.429688 85.285156 C 147.429688 84.894531 147.46875 84.542969 147.546875 84.21875 C 147.621094 83.898438 147.738281 83.625 147.894531 83.394531 C 148.054688 83.160156 148.257812 82.980469 148.5 82.855469 C 148.742188 82.726562 149.03125 82.664062 149.363281 82.664062 C 149.703125 82.683594 149.972656 82.777344 150.171875 82.949219 C 150.367188 83.121094 150.507812 83.371094 150.589844 83.699219 C 150.675781 84.027344 150.714844 84.4375 150.714844 84.933594 L 150.714844 88.230469 L 151.886719 88.230469 L 151.886719 84.449219 C 151.890625 83.875 151.804688 83.386719 151.636719 82.980469 C 151.464844 82.570312 151.203125 82.261719 150.851562 82.042969 C 150.5 81.824219 150.050781 81.71875 149.503906 81.714844 C 149.054688 81.71875 148.65625 81.808594 148.308594 81.992188 C 147.953125 82.175781 147.671875 82.4375 147.457031 82.773438 L 147.429688 82.773438 L 147.429688 78.867188 L 146.257812 78.867188 L 146.257812 88.230469 "/>
<path style=" stroke:none;fill-rule:nonzero;fill:rgb(13.729858%,12.159729%,12.548828%);fill-opacity:1;" d="M 153.808594 88.230469 L 154.984375 88.230469 L 154.984375 85.285156 C 154.984375 84.894531 155.019531 84.542969 155.097656 84.21875 C 155.175781 83.898438 155.289062 83.625 155.449219 83.394531 C 155.605469 83.160156 155.808594 82.980469 156.054688 82.855469 C 156.296875 82.726562 156.585938 82.664062 156.917969 82.664062 C 157.257812 82.683594 157.523438 82.777344 157.722656 82.949219 C 157.921875 83.121094 158.058594 83.371094 158.144531 83.699219 C 158.230469 84.027344 158.269531 84.4375 158.265625 84.933594 L 158.265625 88.230469 L 159.4375 88.230469 L 159.4375 84.449219 C 159.441406 83.875 159.355469 83.386719 159.1875 82.980469 C 159.019531 82.570312 158.757812 82.261719 158.402344 82.042969 C 158.054688 81.824219 157.605469 81.71875 157.054688 81.714844 C 156.757812 81.714844 156.472656 81.761719 156.199219 81.855469 C 155.925781 81.949219 155.683594 82.078125 155.46875 82.253906 C 155.257812 82.425781 155.089844 82.632812 154.972656 82.875 L 154.945312 82.875 L 154.945312 81.863281 L 153.808594 81.863281 L 153.808594 88.230469 "/>
<path style=" stroke:none;fill-rule:nonzero;fill:rgb(13.729858%,12.159729%,12.548828%);fill-opacity:1;" d="M 162.1875 85.046875 C 162.1875 84.742188 162.230469 84.445312 162.320312 84.164062 C 162.410156 83.878906 162.539062 83.625 162.714844 83.402344 C 162.882812 83.175781 163.09375 82.996094 163.339844 82.863281 C 163.585938 82.734375 163.867188 82.664062 164.183594 82.664062 C 164.496094 82.664062 164.773438 82.734375 165.019531 82.863281 C 165.265625 82.996094 165.472656 83.175781 165.644531 83.402344 C 165.8125 83.625 165.945312 83.878906 166.03125 84.164062 C 166.121094 84.445312 166.167969 84.742188 166.167969 85.046875 C 166.167969 85.273438 166.144531 85.503906 166.09375 85.730469 C 166.042969 85.957031 165.96875 86.171875 165.863281 86.375 C 165.761719 86.582031 165.632812 86.761719 165.476562 86.917969 C 165.316406 87.078125 165.132812 87.203125 164.917969 87.292969 C 164.703125 87.382812 164.457031 87.429688 164.183594 87.429688 C 163.90625 87.429688 163.660156 87.382812 163.441406 87.292969 C 163.226562 87.203125 163.039062 87.078125 162.882812 86.917969 C 162.722656 86.761719 162.59375 86.582031 162.488281 86.375 C 162.386719 86.171875 162.3125 85.957031 162.261719 85.730469 C 162.210938 85.503906 162.1875 85.273438 162.1875 85.046875 Z M 160.9375 85.046875 C 160.941406 85.503906 161.019531 85.933594 161.175781 86.335938 C 161.332031 86.738281 161.550781 87.089844 161.839844 87.394531 C 162.128906 87.699219 162.46875 87.941406 162.863281 88.113281 C 163.261719 88.289062 163.699219 88.375 164.183594 88.378906 C 164.660156 88.375 165.101562 88.289062 165.492188 88.113281 C 165.890625 87.941406 166.230469 87.699219 166.515625 87.394531 C 166.800781 87.089844 167.023438 86.738281 167.179688 86.335938 C 167.335938 85.933594 167.414062 85.503906 167.414062 85.046875 C 167.414062 84.558594 167.335938 84.113281 167.183594 83.707031 C 167.027344 83.304688 166.8125 82.953125 166.523438 82.65625 C 166.238281 82.355469 165.898438 82.125 165.503906 81.960938 C 165.109375 81.800781 164.667969 81.71875 164.183594 81.714844 C 163.695312 81.71875 163.25 81.800781 162.855469 81.960938 C 162.457031 82.125 162.113281 82.355469 161.828125 82.65625 C 161.546875 82.953125 161.324219 83.304688 161.171875 83.707031 C 161.015625 84.113281 160.941406 84.558594 160.9375 85.046875 "/>
<path style=" stroke:none;fill-rule:nonzero;fill:rgb(13.729858%,12.159729%,12.548828%);fill-opacity:1;" d="M 169.0625 88.230469 L 170.238281 88.230469 L 170.238281 78.867188 L 169.0625 78.867188 L 169.0625 88.230469 "/>
<path style=" stroke:none;fill-rule:nonzero;fill:rgb(13.729858%,12.159729%,12.548828%);fill-opacity:1;" d="M 173.136719 85.046875 C 173.136719 84.742188 173.179688 84.445312 173.269531 84.164062 C 173.359375 83.878906 173.488281 83.625 173.660156 83.402344 C 173.832031 83.175781 174.042969 82.996094 174.285156 82.863281 C 174.535156 82.734375 174.816406 82.664062 175.132812 82.664062 C 175.441406 82.664062 175.722656 82.734375 175.96875 82.863281 C 176.214844 82.996094 176.421875 83.175781 176.59375 83.402344 C 176.761719 83.625 176.894531 83.878906 176.980469 84.164062 C 177.070312 84.445312 177.113281 84.742188 177.113281 85.046875 C 177.113281 85.273438 177.089844 85.503906 177.039062 85.730469 C 176.992188 85.957031 176.914062 86.171875 176.8125 86.375 C 176.710938 86.582031 176.582031 86.761719 176.421875 86.917969 C 176.265625 87.078125 176.078125 87.203125 175.863281 87.292969 C 175.652344 87.382812 175.40625 87.429688 175.132812 87.429688 C 174.855469 87.429688 174.605469 87.382812 174.390625 87.292969 C 174.175781 87.203125 173.988281 87.078125 173.828125 86.917969 C 173.671875 86.761719 173.542969 86.582031 173.4375 86.375 C 173.335938 86.171875 173.261719 85.957031 173.210938 85.730469 C 173.160156 85.503906 173.136719 85.273438 173.136719 85.046875 Z M 171.886719 85.046875 C 171.890625 85.503906 171.96875 85.933594 172.125 86.335938 C 172.277344 86.738281 172.5 87.089844 172.789062 87.394531 C 173.074219 87.699219 173.417969 87.941406 173.8125 88.113281 C 174.210938 88.289062 174.648438 88.375 175.132812 88.378906 C 175.609375 88.375 176.050781 88.289062 176.441406 88.113281 C 176.835938 87.941406 177.179688 87.699219 177.464844 87.394531 C 177.75 87.089844 177.972656 86.738281 178.128906 86.335938 C 178.28125 85.933594 178.359375 85.503906 178.363281 85.046875 C 178.359375 84.558594 178.285156 84.113281 178.132812 83.707031 C 177.976562 83.304688 177.757812 82.953125 177.472656 82.65625 C 177.1875 82.355469 176.847656 82.125 176.453125 81.960938 C 176.058594 81.800781 175.617188 81.71875 175.132812 81.714844 C 174.644531 81.71875 174.199219 81.800781 173.804688 81.960938 C 173.40625 82.125 173.0625 82.355469 172.777344 82.65625 C 172.492188 82.953125 172.273438 83.304688 172.117188 83.707031 C 171.964844 84.113281 171.890625 84.558594 171.886719 85.046875 "/>
<path style=" stroke:none;fill-rule:nonzero;fill:rgb(13.729858%,12.159729%,12.548828%);fill-opacity:1;" d="M 182.460938 87.28125 C 182.183594 87.277344 181.9375 87.21875 181.71875 87.097656 C 181.5 86.980469 181.3125 86.8125 181.160156 86.605469 C 181.007812 86.398438 180.890625 86.160156 180.808594 85.890625 C 180.730469 85.621094 180.6875 85.335938 180.6875 85.035156 C 180.6875 84.816406 180.710938 84.59375 180.757812 84.371094 C 180.804688 84.148438 180.875 83.933594 180.96875 83.730469 C 181.0625 83.527344 181.183594 83.34375 181.324219 83.1875 C 181.464844 83.023438 181.632812 82.898438 181.820312 82.804688 C 182.011719 82.710938 182.222656 82.664062 182.460938 82.664062 C 182.769531 82.664062 183.042969 82.730469 183.277344 82.859375 C 183.511719 82.988281 183.703125 83.167969 183.855469 83.394531 C 184.011719 83.625 184.128906 83.882812 184.203125 84.179688 C 184.28125 84.476562 184.316406 84.789062 184.316406 85.121094 C 184.316406 85.417969 184.273438 85.699219 184.183594 85.960938 C 184.09375 86.21875 183.964844 86.449219 183.800781 86.644531 C 183.636719 86.84375 183.441406 87 183.214844 87.109375 C 182.984375 87.222656 182.734375 87.277344 182.460938 87.28125 Z M 185.492188 81.863281 L 184.40625 81.863281 L 184.40625 82.8125 L 184.382812 82.8125 C 184.265625 82.582031 184.117188 82.386719 183.933594 82.222656 C 183.746094 82.058594 183.519531 81.933594 183.25 81.847656 C 182.980469 81.761719 182.65625 81.714844 182.285156 81.714844 C 181.898438 81.71875 181.558594 81.78125 181.25 81.910156 C 180.945312 82.039062 180.679688 82.210938 180.453125 82.433594 C 180.226562 82.65625 180.039062 82.914062 179.886719 83.199219 C 179.734375 83.488281 179.625 83.792969 179.550781 84.117188 C 179.476562 84.441406 179.4375 84.769531 179.4375 85.097656 C 179.4375 85.511719 179.496094 85.90625 179.605469 86.28125 C 179.71875 86.65625 179.890625 86.988281 180.117188 87.28125 C 180.34375 87.574219 180.625 87.800781 180.964844 87.972656 C 181.308594 88.140625 181.703125 88.226562 182.160156 88.230469 C 182.433594 88.230469 182.699219 88.195312 182.964844 88.121094 C 183.226562 88.050781 183.472656 87.9375 183.699219 87.792969 C 183.929688 87.644531 184.125 87.464844 184.292969 87.242188 L 184.316406 87.242188 L 184.316406 87.867188 C 184.316406 88.320312 184.238281 88.707031 184.082031 89.03125 C 183.925781 89.359375 183.699219 89.609375 183.40625 89.785156 C 183.113281 89.960938 182.761719 90.050781 182.347656 90.050781 C 182.132812 90.050781 181.9375 90.042969 181.753906 90.019531 C 181.566406 90 181.386719 89.964844 181.214844 89.917969 C 181.035156 89.875 180.855469 89.8125 180.667969 89.742188 C 180.480469 89.667969 180.273438 89.578125 180.050781 89.476562 L 179.925781 90.5625 C 180.261719 90.675781 180.5625 90.769531 180.820312 90.832031 C 181.082031 90.894531 181.324219 90.9375 181.546875 90.964844 C 181.765625 90.988281 181.988281 91 182.210938 91 C 182.96875 90.996094 183.589844 90.878906 184.074219 90.640625 C 184.5625 90.402344 184.917969 90.058594 185.148438 89.605469 C 185.378906 89.148438 185.492188 88.601562 185.492188 87.957031 L 185.492188 81.863281 "/>
<path style=" stroke:none;fill-rule:nonzero;fill:rgb(13.729858%,12.159729%,12.548828%);fill-opacity:1;" d="M 188.8125 79.117188 L 187.488281 79.117188 L 187.488281 80.441406 L 188.8125 80.441406 Z M 187.566406 88.230469 L 188.738281 88.230469 L 188.738281 81.863281 L 187.566406 81.863281 L 187.566406 88.230469 "/>
<g clip-path="url(#clip3)" clip-rule="nonzero">
<path style=" stroke:none;fill-rule:nonzero;fill:rgb(13.729858%,12.159729%,12.548828%);fill-opacity:1;" d="M 191.636719 84.4375 C 191.65625 84.226562 191.703125 84.019531 191.777344 83.8125 C 191.851562 83.605469 191.957031 83.414062 192.09375 83.238281 C 192.230469 83.066406 192.398438 82.929688 192.605469 82.824219 C 192.8125 82.71875 193.058594 82.664062 193.347656 82.664062 C 193.597656 82.664062 193.824219 82.710938 194.019531 82.800781 C 194.21875 82.894531 194.382812 83.019531 194.515625 83.183594 C 194.652344 83.34375 194.757812 83.535156 194.824219 83.746094 C 194.894531 83.960938 194.929688 84.1875 194.929688 84.4375 Z M 195.691406 86.792969 C 195.617188 86.855469 195.511719 86.921875 195.371094 86.992188 C 195.234375 87.066406 195.074219 87.136719 194.894531 87.203125 C 194.714844 87.269531 194.523438 87.324219 194.324219 87.363281 C 194.125 87.40625 193.929688 87.429688 193.730469 87.429688 C 193.449219 87.429688 193.1875 87.378906 192.9375 87.277344 C 192.6875 87.175781 192.460938 87.03125 192.269531 86.84375 C 192.070312 86.65625 191.917969 86.429688 191.808594 86.171875 C 191.695312 85.914062 191.636719 85.625 191.636719 85.308594 L 196.179688 85.308594 C 196.179688 84.792969 196.132812 84.320312 196.039062 83.882812 C 195.941406 83.449219 195.785156 83.070312 195.570312 82.742188 C 195.351562 82.417969 195.066406 82.167969 194.703125 81.988281 C 194.34375 81.808594 193.898438 81.71875 193.371094 81.714844 C 192.917969 81.71875 192.511719 81.796875 192.144531 81.949219 C 191.78125 82.109375 191.46875 82.332031 191.203125 82.617188 C 190.941406 82.90625 190.742188 83.242188 190.601562 83.636719 C 190.460938 84.027344 190.390625 84.460938 190.386719 84.933594 C 190.386719 85.453125 190.453125 85.925781 190.585938 86.347656 C 190.714844 86.769531 190.917969 87.132812 191.1875 87.433594 C 191.460938 87.738281 191.800781 87.96875 192.214844 88.132812 C 192.628906 88.296875 193.117188 88.375 193.683594 88.378906 C 194.027344 88.375 194.324219 88.355469 194.570312 88.308594 C 194.8125 88.261719 195.023438 88.207031 195.203125 88.144531 C 195.382812 88.082031 195.542969 88.023438 195.691406 87.96875 L 195.691406 86.792969 "/>
</g>
</g>
</svg>
